<svg xmlns="http://www.w3.org/2000/svg" xmlns:xlink="http://www.w3.org/1999/xlink" width="2373" zoomAndPan="magnify" viewBox="0 0 1779.75 506.249968" height="675" preserveAspectRatio="xMidYMid meet" version="1.0"><defs><g/></defs><path stroke-linecap="round" transform="matrix(9.004951, 0, 0, 8.998277, 1.191625, 0.755527)" fill-opacity="1" fill="#f7a901" fill-rule="nonzero" stroke-linejoin="round" d="M 6.400101 28.500068 L 18.700193 28.299942 L 2.299926 54.999932 L 37.799929 20.999934 L 23.50007 21.299904 L 37.399976 1.000011 L 23.700046 1.299982 Z M 6.400101 28.500068 " stroke="#000000" stroke-width="1" stroke-opacity="1" stroke-miterlimit="4"/><g fill="#ffffff" fill-opacity="1"><g transform="translate(370.175245, 147.967802)"><g><path d="M 29.171875 -67.890625 L 29.171875 -45.84375 L 67.765625 -45.84375 L 67.765625 -30.375 L 29.171875 -30.375 L 29.171875 0 L 9.890625 0 L 9.890625 -83.359375 L 72.890625 -83.359375 L 72.890625 -67.890625 Z M 29.171875 -67.890625 "/></g></g></g><g fill="#ffffff" fill-opacity="1"><g transform="translate(446.270759, 147.967802)"><g><path d="M 73.125 -64.078125 L 73.125 0 L 55.5 0 L 55.5 -7.625 C 53.039062 -4.84375 50.101562 -2.71875 46.6875 -1.25 C 43.269531 0.21875 39.578125 0.953125 35.609375 0.953125 C 27.191406 0.953125 20.519531 -1.46875 15.59375 -6.3125 C 10.675781 -11.15625 8.21875 -18.34375 8.21875 -27.875 L 8.21875 -64.078125 L 26.796875 -64.078125 L 26.796875 -30.609375 C 26.796875 -20.285156 31.125 -15.125 39.78125 -15.125 C 44.226562 -15.125 47.800781 -16.570312 50.5 -19.46875 C 53.195312 -22.363281 54.546875 -26.671875 54.546875 -32.390625 L 54.546875 -64.078125 Z M 73.125 -64.078125 "/></g></g></g><g fill="#ffffff" fill-opacity="1"><g transform="translate(528.082367, 147.967802)"><g><path d="M 49.90625 -3.09375 C 48.070312 -1.75 45.828125 -0.738281 43.171875 -0.0625 C 40.515625 0.613281 37.71875 0.953125 34.78125 0.953125 C 27.15625 0.953125 21.257812 -0.988281 17.09375 -4.875 C 12.925781 -8.769531 10.84375 -14.488281 10.84375 -22.03125 L 10.84375 -48.359375 L 0.953125 -48.359375 L 0.953125 -62.640625 L 10.84375 -62.640625 L 10.84375 -78.25 L 29.421875 -78.25 L 29.421875 -62.640625 L 45.375 -62.640625 L 45.375 -48.359375 L 29.421875 -48.359375 L 29.421875 -22.265625 C 29.421875 -19.566406 30.113281 -17.484375 31.5 -16.015625 C 32.882812 -14.546875 34.847656 -13.8125 37.390625 -13.8125 C 40.328125 -13.8125 42.828125 -14.609375 44.890625 -16.203125 Z M 49.90625 -3.09375 "/></g></g></g><g fill="#ffffff" fill-opacity="1"><g transform="translate(579.884478, 147.967802)"><g><path d="M 73.125 -64.078125 L 73.125 0 L 55.5 0 L 55.5 -7.625 C 53.039062 -4.84375 50.101562 -2.71875 46.6875 -1.25 C 43.269531 0.21875 39.578125 0.953125 35.609375 0.953125 C 27.191406 0.953125 20.519531 -1.46875 15.59375 -6.3125 C 10.675781 -11.15625 8.21875 -18.34375 8.21875 -27.875 L 8.21875 -64.078125 L 26.796875 -64.078125 L 26.796875 -30.609375 C 26.796875 -20.285156 31.125 -15.125 39.78125 -15.125 C 44.226562 -15.125 47.800781 -16.570312 50.5 -19.46875 C 53.195312 -22.363281 54.546875 -26.671875 54.546875 -32.390625 L 54.546875 -64.078125 Z M 73.125 -64.078125 "/></g></g></g><g fill="#ffffff" fill-opacity="1"><g transform="translate(661.696075, 147.967802)"><g><path d="M 26.3125 -55.609375 C 28.539062 -58.710938 31.539062 -61.054688 35.3125 -62.640625 C 39.082031 -64.234375 43.429688 -65.03125 48.359375 -65.03125 L 48.359375 -47.875 C 46.285156 -48.03125 44.894531 -48.109375 44.1875 -48.109375 C 38.863281 -48.109375 34.691406 -46.617188 31.671875 -43.640625 C 28.660156 -40.671875 27.15625 -36.207031 27.15625 -30.25 L 27.15625 0 L 8.578125 0 L 8.578125 -64.078125 L 26.3125 -64.078125 Z M 26.3125 -55.609375 "/></g></g></g><g fill="#ffffff" fill-opacity="1"><g transform="translate(713.021857, 147.967802)"><g><path d="M 71.34375 -31.796875 C 71.34375 -31.554688 71.222656 -29.890625 70.984375 -26.796875 L 22.515625 -26.796875 C 23.378906 -22.828125 25.4375 -19.691406 28.6875 -17.390625 C 31.945312 -15.085938 36 -13.9375 40.84375 -13.9375 C 44.175781 -13.9375 47.132812 -14.429688 49.71875 -15.421875 C 52.300781 -16.410156 54.703125 -17.976562 56.921875 -20.125 L 66.8125 -9.40625 C 60.78125 -2.5 51.96875 0.953125 40.375 0.953125 C 33.144531 0.953125 26.75 -0.453125 21.1875 -3.265625 C 15.632812 -6.085938 11.347656 -10 8.328125 -15 C 5.316406 -20.007812 3.8125 -25.6875 3.8125 -32.03125 C 3.8125 -38.300781 5.300781 -43.957031 8.28125 -49 C 11.257812 -54.039062 15.347656 -57.972656 20.546875 -60.796875 C 25.742188 -63.617188 31.554688 -65.03125 37.984375 -65.03125 C 44.265625 -65.03125 49.941406 -63.675781 55.015625 -60.96875 C 60.097656 -58.269531 64.085938 -54.398438 66.984375 -49.359375 C 69.890625 -44.316406 71.34375 -38.460938 71.34375 -31.796875 Z M 38.109375 -50.96875 C 33.898438 -50.96875 30.363281 -49.773438 27.5 -47.390625 C 24.644531 -45.015625 22.898438 -41.765625 22.265625 -37.640625 L 53.828125 -37.640625 C 53.191406 -41.679688 51.441406 -44.910156 48.578125 -47.328125 C 45.722656 -49.753906 42.234375 -50.96875 38.109375 -50.96875 Z M 38.109375 -50.96875 "/></g></g></g><g fill="#ffffff" fill-opacity="1"><g transform="translate(788.164676, 147.967802)"><g/></g></g><g fill="#ffffff" fill-opacity="1"><g transform="translate(821.865844, 147.967802)"><g><path d="M 46.453125 -65.03125 C 52.398438 -65.03125 57.816406 -63.660156 62.703125 -60.921875 C 67.585938 -58.179688 71.414062 -54.328125 74.1875 -49.359375 C 76.96875 -44.398438 78.359375 -38.625 78.359375 -32.03125 C 78.359375 -25.445312 76.96875 -19.671875 74.1875 -14.703125 C 71.414062 -9.742188 67.585938 -5.894531 62.703125 -3.15625 C 57.816406 -0.414062 52.398438 0.953125 46.453125 0.953125 C 38.273438 0.953125 31.84375 -1.625 27.15625 -6.78125 L 27.15625 23.109375 L 8.578125 23.109375 L 8.578125 -64.078125 L 26.3125 -64.078125 L 26.3125 -56.6875 C 30.925781 -62.25 37.640625 -65.03125 46.453125 -65.03125 Z M 43.234375 -14.296875 C 47.992188 -14.296875 51.898438 -15.898438 54.953125 -19.109375 C 58.015625 -22.328125 59.546875 -26.632812 59.546875 -32.03125 C 59.546875 -37.4375 58.015625 -41.742188 54.953125 -44.953125 C 51.898438 -48.171875 47.992188 -49.78125 43.234375 -49.78125 C 38.460938 -49.78125 34.550781 -48.171875 31.5 -44.953125 C 28.445312 -41.742188 26.921875 -37.4375 26.921875 -32.03125 C 26.921875 -26.632812 28.445312 -22.328125 31.5 -19.109375 C 34.550781 -15.898438 38.460938 -14.296875 43.234375 -14.296875 Z M 43.234375 -14.296875 "/></g></g></g><g fill="#ffffff" fill-opacity="1"><g transform="translate(904.034677, 147.967802)"><g><path d="M 26.3125 -55.609375 C 28.539062 -58.710938 31.539062 -61.054688 35.3125 -62.640625 C 39.082031 -64.234375 43.429688 -65.03125 48.359375 -65.03125 L 48.359375 -47.875 C 46.285156 -48.03125 44.894531 -48.109375 44.1875 -48.109375 C 38.863281 -48.109375 34.691406 -46.617188 31.671875 -43.640625 C 28.660156 -40.671875 27.15625 -36.207031 27.15625 -30.25 L 27.15625 0 L 8.578125 0 L 8.578125 -64.078125 L 26.3125 -64.078125 Z M 26.3125 -55.609375 "/></g></g></g><g fill="#ffffff" fill-opacity="1"><g transform="translate(955.360458, 147.967802)"><g><path d="M 39.0625 0.953125 C 32.3125 0.953125 26.253906 -0.453125 20.890625 -3.265625 C 15.535156 -6.085938 11.347656 -10 8.328125 -15 C 5.316406 -20.007812 3.8125 -25.6875 3.8125 -32.03125 C 3.8125 -38.382812 5.316406 -44.0625 8.328125 -49.0625 C 11.347656 -54.0625 15.535156 -57.972656 20.890625 -60.796875 C 26.253906 -63.617188 32.3125 -65.03125 39.0625 -65.03125 C 45.8125 -65.03125 51.84375 -63.617188 57.15625 -60.796875 C 62.476562 -57.972656 66.648438 -54.0625 69.671875 -49.0625 C 72.691406 -44.0625 74.203125 -38.382812 74.203125 -32.03125 C 74.203125 -25.6875 72.691406 -20.007812 69.671875 -15 C 66.648438 -10 62.476562 -6.085938 57.15625 -3.265625 C 51.84375 -0.453125 45.8125 0.953125 39.0625 0.953125 Z M 39.0625 -14.296875 C 43.820312 -14.296875 47.726562 -15.898438 50.78125 -19.109375 C 53.84375 -22.328125 55.375 -26.632812 55.375 -32.03125 C 55.375 -37.4375 53.84375 -41.742188 50.78125 -44.953125 C 47.726562 -48.171875 43.820312 -49.78125 39.0625 -49.78125 C 34.300781 -49.78125 30.367188 -48.171875 27.265625 -44.953125 C 24.171875 -41.742188 22.625 -37.4375 22.625 -32.03125 C 22.625 -26.632812 24.171875 -22.328125 27.265625 -19.109375 C 30.367188 -15.898438 34.300781 -14.296875 39.0625 -14.296875 Z M 39.0625 -14.296875 "/></g></g></g><g fill="#ffffff" fill-opacity="1"><g transform="translate(1033.361348, 147.967802)"><g><path d="M 39.0625 0.953125 C 32.3125 0.953125 26.253906 -0.453125 20.890625 -3.265625 C 15.535156 -6.085938 11.347656 -10 8.328125 -15 C 5.316406 -20.007812 3.8125 -25.6875 3.8125 -32.03125 C 3.8125 -38.382812 5.316406 -44.0625 8.328125 -49.0625 C 11.347656 -54.0625 15.535156 -57.972656 20.890625 -60.796875 C 26.253906 -63.617188 32.3125 -65.03125 39.0625 -65.03125 C 45.8125 -65.03125 51.84375 -63.617188 57.15625 -60.796875 C 62.476562 -57.972656 66.648438 -54.0625 69.671875 -49.0625 C 72.691406 -44.0625 74.203125 -38.382812 74.203125 -32.03125 C 74.203125 -25.6875 72.691406 -20.007812 69.671875 -15 C 66.648438 -10 62.476562 -6.085938 57.15625 -3.265625 C 51.84375 -0.453125 45.8125 0.953125 39.0625 0.953125 Z M 39.0625 -14.296875 C 43.820312 -14.296875 47.726562 -15.898438 50.78125 -19.109375 C 53.84375 -22.328125 55.375 -26.632812 55.375 -32.03125 C 55.375 -37.4375 53.84375 -41.742188 50.78125 -44.953125 C 47.726562 -48.171875 43.820312 -49.78125 39.0625 -49.78125 C 34.300781 -49.78125 30.367188 -48.171875 27.265625 -44.953125 C 24.171875 -41.742188 22.625 -37.4375 22.625 -32.03125 C 22.625 -26.632812 24.171875 -22.328125 27.265625 -19.109375 C 30.367188 -15.898438 34.300781 -14.296875 39.0625 -14.296875 Z M 39.0625 -14.296875 "/></g></g></g><g fill="#ffffff" fill-opacity="1"><g transform="translate(1111.362238, 147.967802)"><g><path d="M 28.9375 -62.640625 L 45.375 -62.640625 L 45.375 -48.359375 L 29.421875 -48.359375 L 29.421875 0 L 10.84375 0 L 10.84375 -48.359375 L 0.953125 -48.359375 L 0.953125 -62.640625 L 10.84375 -62.640625 L 10.84375 -65.5 C 10.84375 -72.800781 13.003906 -78.59375 17.328125 -82.875 C 21.648438 -87.164062 27.742188 -89.3125 35.609375 -89.3125 C 38.390625 -89.3125 41.03125 -89.015625 43.53125 -88.421875 C 46.03125 -87.828125 48.113281 -86.972656 49.78125 -85.859375 L 44.890625 -72.40625 C 42.753906 -73.914062 40.253906 -74.671875 37.390625 -74.671875 C 31.753906 -74.671875 28.9375 -71.570312 28.9375 -65.375 Z M 28.9375 -62.640625 "/></g></g></g><g fill="#ffffff" fill-opacity="1"><g transform="translate(370.175245, 276.02807)"><g><path d="M 46.453125 -65.03125 C 52.398438 -65.03125 57.816406 -63.660156 62.703125 -60.921875 C 67.585938 -58.179688 71.414062 -54.328125 74.1875 -49.359375 C 76.96875 -44.398438 78.359375 -38.625 78.359375 -32.03125 C 78.359375 -25.445312 76.96875 -19.671875 74.1875 -14.703125 C 71.414062 -9.742188 67.585938 -5.894531 62.703125 -3.15625 C 57.816406 -0.414062 52.398438 0.953125 46.453125 0.953125 C 37.640625 0.953125 30.925781 -1.828125 26.3125 -7.390625 L 26.3125 0 L 8.578125 0 L 8.578125 -88.375 L 27.15625 -88.375 L 27.15625 -57.28125 C 31.84375 -62.445312 38.273438 -65.03125 46.453125 -65.03125 Z M 43.234375 -14.296875 C 47.992188 -14.296875 51.898438 -15.898438 54.953125 -19.109375 C 58.015625 -22.328125 59.546875 -26.632812 59.546875 -32.03125 C 59.546875 -37.4375 58.015625 -41.742188 54.953125 -44.953125 C 51.898438 -48.171875 47.992188 -49.78125 43.234375 -49.78125 C 38.460938 -49.78125 34.550781 -48.171875 31.5 -44.953125 C 28.445312 -41.742188 26.921875 -37.4375 26.921875 -32.03125 C 26.921875 -26.632812 28.445312 -22.328125 31.5 -19.109375 C 34.550781 -15.898438 38.460938 -14.296875 43.234375 -14.296875 Z M 43.234375 -14.296875 "/></g></g></g><g fill="#ffffff" fill-opacity="1"><g transform="translate(452.344112, 276.02807)"><g><path d="M 26.3125 -55.609375 C 28.539062 -58.710938 31.539062 -61.054688 35.3125 -62.640625 C 39.082031 -64.234375 43.429688 -65.03125 48.359375 -65.03125 L 48.359375 -47.875 C 46.285156 -48.03125 44.894531 -48.109375 44.1875 -48.109375 C 38.863281 -48.109375 34.691406 -46.617188 31.671875 -43.640625 C 28.660156 -40.671875 27.15625 -36.207031 27.15625 -30.25 L 27.15625 0 L 8.578125 0 L 8.578125 -64.078125 L 26.3125 -64.078125 Z M 26.3125 -55.609375 "/></g></g></g><g fill="#ffffff" fill-opacity="1"><g transform="translate(503.669882, 276.02807)"><g><path d="M 39.0625 0.953125 C 32.3125 0.953125 26.253906 -0.453125 20.890625 -3.265625 C 15.535156 -6.085938 11.347656 -10 8.328125 -15 C 5.316406 -20.007812 3.8125 -25.6875 3.8125 -32.03125 C 3.8125 -38.382812 5.316406 -44.0625 8.328125 -49.0625 C 11.347656 -54.0625 15.535156 -57.972656 20.890625 -60.796875 C 26.253906 -63.617188 32.3125 -65.03125 39.0625 -65.03125 C 45.8125 -65.03125 51.84375 -63.617188 57.15625 -60.796875 C 62.476562 -57.972656 66.648438 -54.0625 69.671875 -49.0625 C 72.691406 -44.0625 74.203125 -38.382812 74.203125 -32.03125 C 74.203125 -25.6875 72.691406 -20.007812 69.671875 -15 C 66.648438 -10 62.476562 -6.085938 57.15625 -3.265625 C 51.84375 -0.453125 45.8125 0.953125 39.0625 0.953125 Z M 39.0625 -14.296875 C 43.820312 -14.296875 47.726562 -15.898438 50.78125 -19.109375 C 53.84375 -22.328125 55.375 -26.632812 55.375 -32.03125 C 55.375 -37.4375 53.84375 -41.742188 50.78125 -44.953125 C 47.726562 -48.171875 43.820312 -49.78125 39.0625 -49.78125 C 34.300781 -49.78125 30.367188 -48.171875 27.265625 -44.953125 C 24.171875 -41.742188 22.625 -37.4375 22.625 -32.03125 C 22.625 -26.632812 24.171875 -22.328125 27.265625 -19.109375 C 30.367188 -15.898438 34.300781 -14.296875 39.0625 -14.296875 Z M 39.0625 -14.296875 "/></g></g></g><g fill="#ffffff" fill-opacity="1"><g transform="translate(581.670749, 276.02807)"><g><path d="M 34.421875 -65.03125 C 44.347656 -65.03125 51.96875 -62.664062 57.28125 -57.9375 C 62.601562 -53.21875 65.265625 -46.09375 65.265625 -36.5625 L 65.265625 0 L 47.875 0 L 47.875 -7.984375 C 44.382812 -2.023438 37.875 0.953125 28.34375 0.953125 C 23.414062 0.953125 19.144531 0.117188 15.53125 -1.546875 C 11.925781 -3.210938 9.171875 -5.515625 7.265625 -8.453125 C 5.359375 -11.390625 4.40625 -14.722656 4.40625 -18.453125 C 4.40625 -24.410156 6.644531 -29.097656 11.125 -32.515625 C 15.613281 -35.929688 22.546875 -37.640625 31.921875 -37.640625 L 46.6875 -37.640625 C 46.6875 -41.679688 45.453125 -44.789062 42.984375 -46.96875 C 40.523438 -49.15625 36.835938 -50.25 31.921875 -50.25 C 28.503906 -50.25 25.144531 -49.710938 21.84375 -48.640625 C 18.550781 -47.578125 15.753906 -46.128906 13.453125 -44.296875 L 6.78125 -57.28125 C 10.28125 -59.738281 14.46875 -61.644531 19.34375 -63 C 24.226562 -64.351562 29.253906 -65.03125 34.421875 -65.03125 Z M 32.984375 -11.546875 C 36.160156 -11.546875 38.976562 -12.28125 41.4375 -13.75 C 43.90625 -15.21875 45.65625 -17.382812 46.6875 -20.25 L 46.6875 -26.796875 L 33.9375 -26.796875 C 26.320312 -26.796875 22.515625 -24.296875 22.515625 -19.296875 C 22.515625 -16.910156 23.445312 -15.019531 25.3125 -13.625 C 27.175781 -12.238281 29.734375 -11.546875 32.984375 -11.546875 Z M 32.984375 -11.546875 "/></g></g></g><g fill="#ffffff" fill-opacity="1"><g transform="translate(655.146392, 276.02807)"><g><path d="M 73.84375 -88.375 L 73.84375 0 L 56.09375 0 L 56.09375 -7.390625 C 51.488281 -1.828125 44.816406 0.953125 36.078125 0.953125 C 30.046875 0.953125 24.585938 -0.394531 19.703125 -3.09375 C 14.828125 -5.789062 11 -9.640625 8.21875 -14.640625 C 5.4375 -19.648438 4.046875 -25.445312 4.046875 -32.03125 C 4.046875 -38.625 5.4375 -44.421875 8.21875 -49.421875 C 11 -54.421875 14.828125 -58.269531 19.703125 -60.96875 C 24.585938 -63.675781 30.046875 -65.03125 36.078125 -65.03125 C 44.265625 -65.03125 50.660156 -62.445312 55.265625 -57.28125 L 55.265625 -88.375 Z M 39.296875 -14.296875 C 43.984375 -14.296875 47.875 -15.898438 50.96875 -19.109375 C 54.0625 -22.328125 55.609375 -26.632812 55.609375 -32.03125 C 55.609375 -37.4375 54.0625 -41.742188 50.96875 -44.953125 C 47.875 -48.171875 43.984375 -49.78125 39.296875 -49.78125 C 34.535156 -49.78125 30.601562 -48.171875 27.5 -44.953125 C 24.40625 -41.742188 22.859375 -37.4375 22.859375 -32.03125 C 22.859375 -26.632812 24.40625 -22.328125 27.5 -19.109375 C 30.601562 -15.898438 34.535156 -14.296875 39.296875 -14.296875 Z M 39.296875 -14.296875 "/></g></g></g><g fill="#ffffff" fill-opacity="1"><g transform="translate(737.553412, 276.02807)"><g><path d="M 46.453125 -65.03125 C 52.398438 -65.03125 57.816406 -63.660156 62.703125 -60.921875 C 67.585938 -58.179688 71.414062 -54.328125 74.1875 -49.359375 C 76.96875 -44.398438 78.359375 -38.625 78.359375 -32.03125 C 78.359375 -25.445312 76.96875 -19.671875 74.1875 -14.703125 C 71.414062 -9.742188 67.585938 -5.894531 62.703125 -3.15625 C 57.816406 -0.414062 52.398438 0.953125 46.453125 0.953125 C 37.640625 0.953125 30.925781 -1.828125 26.3125 -7.390625 L 26.3125 0 L 8.578125 0 L 8.578125 -88.375 L 27.15625 -88.375 L 27.15625 -57.28125 C 31.84375 -62.445312 38.273438 -65.03125 46.453125 -65.03125 Z M 43.234375 -14.296875 C 47.992188 -14.296875 51.898438 -15.898438 54.953125 -19.109375 C 58.015625 -22.328125 59.546875 -26.632812 59.546875 -32.03125 C 59.546875 -37.4375 58.015625 -41.742188 54.953125 -44.953125 C 51.898438 -48.171875 47.992188 -49.78125 43.234375 -49.78125 C 38.460938 -49.78125 34.550781 -48.171875 31.5 -44.953125 C 28.445312 -41.742188 26.921875 -37.4375 26.921875 -32.03125 C 26.921875 -26.632812 28.445312 -22.328125 31.5 -19.109375 C 34.550781 -15.898438 38.460938 -14.296875 43.234375 -14.296875 Z M 43.234375 -14.296875 "/></g></g></g><g fill="#ffffff" fill-opacity="1"><g transform="translate(819.72229, 276.02807)"><g><path d="M 34.421875 -65.03125 C 44.347656 -65.03125 51.96875 -62.664062 57.28125 -57.9375 C 62.601562 -53.21875 65.265625 -46.09375 65.265625 -36.5625 L 65.265625 0 L 47.875 0 L 47.875 -7.984375 C 44.382812 -2.023438 37.875 0.953125 28.34375 0.953125 C 23.414062 0.953125 19.144531 0.117188 15.53125 -1.546875 C 11.925781 -3.210938 9.171875 -5.515625 7.265625 -8.453125 C 5.359375 -11.390625 4.40625 -14.722656 4.40625 -18.453125 C 4.40625 -24.410156 6.644531 -29.097656 11.125 -32.515625 C 15.613281 -35.929688 22.546875 -37.640625 31.921875 -37.640625 L 46.6875 -37.640625 C 46.6875 -41.679688 45.453125 -44.789062 42.984375 -46.96875 C 40.523438 -49.15625 36.835938 -50.25 31.921875 -50.25 C 28.503906 -50.25 25.144531 -49.710938 21.84375 -48.640625 C 18.550781 -47.578125 15.753906 -46.128906 13.453125 -44.296875 L 6.78125 -57.28125 C 10.28125 -59.738281 14.46875 -61.644531 19.34375 -63 C 24.226562 -64.351562 29.253906 -65.03125 34.421875 -65.03125 Z M 32.984375 -11.546875 C 36.160156 -11.546875 38.976562 -12.28125 41.4375 -13.75 C 43.90625 -15.21875 45.65625 -17.382812 46.6875 -20.25 L 46.6875 -26.796875 L 33.9375 -26.796875 C 26.320312 -26.796875 22.515625 -24.296875 22.515625 -19.296875 C 22.515625 -16.910156 23.445312 -15.019531 25.3125 -13.625 C 27.175781 -12.238281 29.734375 -11.546875 32.984375 -11.546875 Z M 32.984375 -11.546875 "/></g></g></g><g fill="#ffffff" fill-opacity="1"><g transform="translate(893.197933, 276.02807)"><g><path d="M 47.515625 -65.03125 C 55.453125 -65.03125 61.863281 -62.644531 66.75 -57.875 C 71.632812 -53.113281 74.078125 -46.050781 74.078125 -36.6875 L 74.078125 0 L 55.5 0 L 55.5 -33.828125 C 55.5 -38.898438 54.382812 -42.6875 52.15625 -45.1875 C 49.9375 -47.695312 46.722656 -48.953125 42.515625 -48.953125 C 37.828125 -48.953125 34.09375 -47.5 31.3125 -44.59375 C 28.539062 -41.695312 27.15625 -37.390625 27.15625 -31.671875 L 27.15625 0 L 8.578125 0 L 8.578125 -64.078125 L 26.3125 -64.078125 L 26.3125 -56.5625 C 28.78125 -59.269531 31.835938 -61.359375 35.484375 -62.828125 C 39.140625 -64.296875 43.148438 -65.03125 47.515625 -65.03125 Z M 47.515625 -65.03125 "/></g></g></g><g fill="#ffffff" fill-opacity="1"><g transform="translate(975.485883, 276.02807)"><g><path d="M 73.84375 -88.375 L 73.84375 0 L 56.09375 0 L 56.09375 -7.390625 C 51.488281 -1.828125 44.816406 0.953125 36.078125 0.953125 C 30.046875 0.953125 24.585938 -0.394531 19.703125 -3.09375 C 14.828125 -5.789062 11 -9.640625 8.21875 -14.640625 C 5.4375 -19.648438 4.046875 -25.445312 4.046875 -32.03125 C 4.046875 -38.625 5.4375 -44.421875 8.21875 -49.421875 C 11 -54.421875 14.828125 -58.269531 19.703125 -60.96875 C 24.585938 -63.675781 30.046875 -65.03125 36.078125 -65.03125 C 44.265625 -65.03125 50.660156 -62.445312 55.265625 -57.28125 L 55.265625 -88.375 Z M 39.296875 -14.296875 C 43.984375 -14.296875 47.875 -15.898438 50.96875 -19.109375 C 54.0625 -22.328125 55.609375 -26.632812 55.609375 -32.03125 C 55.609375 -37.4375 54.0625 -41.742188 50.96875 -44.953125 C 47.875 -48.171875 43.984375 -49.78125 39.296875 -49.78125 C 34.535156 -49.78125 30.601562 -48.171875 27.5 -44.953125 C 24.40625 -41.742188 22.859375 -37.4375 22.859375 -32.03125 C 22.859375 -26.632812 24.40625 -22.328125 27.5 -19.109375 C 30.601562 -15.898438 34.535156 -14.296875 39.296875 -14.296875 Z M 39.296875 -14.296875 "/></g></g></g><g fill="#ffffff" fill-opacity="1"><g transform="translate(370.175245, 362.150472)"><g><path d="M 13.5625 0.4375 C 10.695312 0.4375 8.039062 -0.179688 5.59375 -1.421875 C 3.15625 -2.671875 1.171875 -4.445312 -0.359375 -6.75 L 2.796875 -10.34375 C 5.578125 -6.226562 9.191406 -4.171875 13.640625 -4.171875 C 19.859375 -4.171875 22.96875 -7.851562 22.96875 -15.21875 L 22.96875 -45.65625 L 4.59375 -45.65625 L 4.59375 -50.265625 L 28.21875 -50.265625 L 28.21875 -15.4375 C 28.21875 -10.164062 26.984375 -6.203125 24.515625 -3.546875 C 22.054688 -0.890625 18.40625 0.4375 13.5625 0.4375 Z M 13.5625 0.4375 "/></g></g></g><g fill="#ffffff" fill-opacity="1"><g transform="translate(406.146989, 362.150472)"><g><path d="M 22.546875 0.359375 C 18.910156 0.359375 15.628906 -0.460938 12.703125 -2.109375 C 9.785156 -3.765625 7.488281 -6.050781 5.8125 -8.96875 C 4.132812 -11.894531 3.296875 -15.195312 3.296875 -18.875 C 3.296875 -22.5625 4.132812 -25.863281 5.8125 -28.78125 C 7.488281 -31.707031 9.785156 -33.984375 12.703125 -35.609375 C 15.628906 -37.234375 18.910156 -38.046875 22.546875 -38.046875 C 26.179688 -38.046875 29.457031 -37.234375 32.375 -35.609375 C 35.300781 -33.984375 37.585938 -31.707031 39.234375 -28.78125 C 40.890625 -25.863281 41.71875 -22.5625 41.71875 -18.875 C 41.71875 -15.195312 40.890625 -11.894531 39.234375 -8.96875 C 37.585938 -6.050781 35.300781 -3.765625 32.375 -2.109375 C 29.457031 -0.460938 26.179688 0.359375 22.546875 0.359375 Z M 22.546875 -4.171875 C 25.222656 -4.171875 27.625 -4.78125 29.75 -6 C 31.882812 -7.21875 33.550781 -8.953125 34.75 -11.203125 C 35.945312 -13.453125 36.546875 -16.007812 36.546875 -18.875 C 36.546875 -21.75 35.945312 -24.3125 34.75 -26.5625 C 33.550781 -28.8125 31.882812 -30.546875 29.75 -31.765625 C 27.625 -32.984375 25.222656 -33.59375 22.546875 -33.59375 C 19.867188 -33.59375 17.460938 -32.984375 15.328125 -31.765625 C 13.203125 -30.546875 11.523438 -28.8125 10.296875 -26.5625 C 9.078125 -24.3125 8.46875 -21.75 8.46875 -18.875 C 8.46875 -16.007812 9.078125 -13.453125 10.296875 -11.203125 C 11.523438 -8.953125 13.203125 -7.21875 15.328125 -6 C 17.460938 -4.78125 19.867188 -4.171875 22.546875 -4.171875 Z M 22.546875 -4.171875 "/></g></g></g><g fill="#ffffff" fill-opacity="1"><g transform="translate(451.165526, 362.150472)"><g><path d="M 7.109375 -37.765625 L 12.203125 -37.765625 L 12.203125 0 L 7.109375 0 Z M 9.6875 -46.015625 C 8.632812 -46.015625 7.75 -46.375 7.03125 -47.09375 C 6.320312 -47.8125 5.96875 -48.675781 5.96875 -49.6875 C 5.96875 -50.644531 6.320312 -51.476562 7.03125 -52.1875 C 7.75 -52.90625 8.632812 -53.265625 9.6875 -53.265625 C 10.75 -53.265625 11.632812 -52.914062 12.34375 -52.21875 C 13.0625 -51.53125 13.421875 -50.707031 13.421875 -49.75 C 13.421875 -48.695312 13.0625 -47.8125 12.34375 -47.09375 C 11.632812 -46.375 10.75 -46.015625 9.6875 -46.015625 Z M 9.6875 -46.015625 "/></g></g></g><g fill="#ffffff" fill-opacity="1"><g transform="translate(470.479691, 362.150472)"><g><path d="M 26.34375 -38.046875 C 31.082031 -38.046875 34.851562 -36.671875 37.65625 -33.921875 C 40.457031 -31.171875 41.859375 -27.160156 41.859375 -21.890625 L 41.859375 0 L 36.765625 0 L 36.765625 -21.390625 C 36.765625 -25.316406 35.78125 -28.304688 33.8125 -30.359375 C 31.851562 -32.421875 29.054688 -33.453125 25.421875 -33.453125 C 21.347656 -33.453125 18.125 -32.242188 15.75 -29.828125 C 13.382812 -27.410156 12.203125 -24.070312 12.203125 -19.8125 L 12.203125 0 L 7.109375 0 L 7.109375 -37.765625 L 11.984375 -37.765625 L 11.984375 -30.796875 C 13.378906 -33.097656 15.304688 -34.878906 17.765625 -36.140625 C 20.234375 -37.410156 23.09375 -38.046875 26.34375 -38.046875 Z M 26.34375 -38.046875 "/></g></g></g><g fill="#ffffff" fill-opacity="1"><g transform="translate(519.088219, 362.150472)"><g/></g></g><g fill="#ffffff" fill-opacity="1"><g transform="translate(537.899795, 362.150472)"><g><path d="M 27 -2.296875 C 26.039062 -1.429688 24.851562 -0.769531 23.4375 -0.3125 C 22.03125 0.132812 20.5625 0.359375 19.03125 0.359375 C 15.488281 0.359375 12.757812 -0.597656 10.84375 -2.515625 C 8.925781 -4.429688 7.96875 -7.132812 7.96875 -10.625 L 7.96875 -33.453125 L 1.21875 -33.453125 L 1.21875 -37.765625 L 7.96875 -37.765625 L 7.96875 -46.015625 L 13.0625 -46.015625 L 13.0625 -37.765625 L 24.546875 -37.765625 L 24.546875 -33.453125 L 13.0625 -33.453125 L 13.0625 -10.90625 C 13.0625 -8.65625 13.625 -6.941406 14.75 -5.765625 C 15.875 -4.597656 17.488281 -4.015625 19.59375 -4.015625 C 20.65625 -4.015625 21.675781 -4.179688 22.65625 -4.515625 C 23.632812 -4.859375 24.484375 -5.335938 25.203125 -5.953125 Z M 27 -2.296875 "/></g></g></g><g fill="#ffffff" fill-opacity="1"><g transform="translate(567.050564, 362.150472)"><g><path d="M 22.546875 0.359375 C 18.910156 0.359375 15.628906 -0.460938 12.703125 -2.109375 C 9.785156 -3.765625 7.488281 -6.050781 5.8125 -8.96875 C 4.132812 -11.894531 3.296875 -15.195312 3.296875 -18.875 C 3.296875 -22.5625 4.132812 -25.863281 5.8125 -28.78125 C 7.488281 -31.707031 9.785156 -33.984375 12.703125 -35.609375 C 15.628906 -37.234375 18.910156 -38.046875 22.546875 -38.046875 C 26.179688 -38.046875 29.457031 -37.234375 32.375 -35.609375 C 35.300781 -33.984375 37.585938 -31.707031 39.234375 -28.78125 C 40.890625 -25.863281 41.71875 -22.5625 41.71875 -18.875 C 41.71875 -15.195312 40.890625 -11.894531 39.234375 -8.96875 C 37.585938 -6.050781 35.300781 -3.765625 32.375 -2.109375 C 29.457031 -0.460938 26.179688 0.359375 22.546875 0.359375 Z M 22.546875 -4.171875 C 25.222656 -4.171875 27.625 -4.78125 29.75 -6 C 31.882812 -7.21875 33.550781 -8.953125 34.75 -11.203125 C 35.945312 -13.453125 36.546875 -16.007812 36.546875 -18.875 C 36.546875 -21.75 35.945312 -24.3125 34.75 -26.5625 C 33.550781 -28.8125 31.882812 -30.546875 29.75 -31.765625 C 27.625 -32.984375 25.222656 -33.59375 22.546875 -33.59375 C 19.867188 -33.59375 17.460938 -32.984375 15.328125 -31.765625 C 13.203125 -30.546875 11.523438 -28.8125 10.296875 -26.5625 C 9.078125 -24.3125 8.46875 -21.75 8.46875 -18.875 C 8.46875 -16.007812 9.078125 -13.453125 10.296875 -11.203125 C 11.523438 -8.953125 13.203125 -7.21875 15.328125 -6 C 17.460938 -4.78125 19.867188 -4.171875 22.546875 -4.171875 Z M 22.546875 -4.171875 "/></g></g></g><g fill="#ffffff" fill-opacity="1"><g transform="translate(612.069101, 362.150472)"><g><path d="M 41.578125 -53.265625 L 41.578125 0 L 36.6875 0 L 36.6875 -7.46875 C 35.15625 -4.925781 33.132812 -2.984375 30.625 -1.640625 C 28.113281 -0.304688 25.273438 0.359375 22.109375 0.359375 C 18.566406 0.359375 15.359375 -0.453125 12.484375 -2.078125 C 9.617188 -3.703125 7.367188 -5.972656 5.734375 -8.890625 C 4.109375 -11.816406 3.296875 -15.144531 3.296875 -18.875 C 3.296875 -22.613281 4.109375 -25.941406 5.734375 -28.859375 C 7.367188 -31.773438 9.617188 -34.035156 12.484375 -35.640625 C 15.359375 -37.242188 18.566406 -38.046875 22.109375 -38.046875 C 25.171875 -38.046875 27.9375 -37.410156 30.40625 -36.140625 C 32.875 -34.878906 34.894531 -33.023438 36.46875 -30.578125 L 36.46875 -53.265625 Z M 22.546875 -4.171875 C 25.179688 -4.171875 27.5625 -4.78125 29.6875 -6 C 31.820312 -7.21875 33.5 -8.953125 34.71875 -11.203125 C 35.9375 -13.453125 36.546875 -16.007812 36.546875 -18.875 C 36.546875 -21.75 35.9375 -24.3125 34.71875 -26.5625 C 33.5 -28.8125 31.820312 -30.546875 29.6875 -31.765625 C 27.5625 -32.984375 25.179688 -33.59375 22.546875 -33.59375 C 19.867188 -33.59375 17.460938 -32.984375 15.328125 -31.765625 C 13.203125 -30.546875 11.523438 -28.8125 10.296875 -26.5625 C 9.078125 -24.3125 8.46875 -21.75 8.46875 -18.875 C 8.46875 -16.007812 9.078125 -13.453125 10.296875 -11.203125 C 11.523438 -8.953125 13.203125 -7.21875 15.328125 -6 C 17.460938 -4.78125 19.867188 -4.171875 22.546875 -4.171875 Z M 22.546875 -4.171875 "/></g></g></g><g fill="#ffffff" fill-opacity="1"><g transform="translate(660.749403, 362.150472)"><g><path d="M 20.3125 -38.046875 C 25.25 -38.046875 29.03125 -36.8125 31.65625 -34.34375 C 34.289062 -31.882812 35.609375 -28.238281 35.609375 -23.40625 L 35.609375 0 L 30.734375 0 L 30.734375 -5.890625 C 29.578125 -3.921875 27.882812 -2.382812 25.65625 -1.28125 C 23.4375 -0.1875 20.796875 0.359375 17.734375 0.359375 C 13.523438 0.359375 10.175781 -0.644531 7.6875 -2.65625 C 5.195312 -4.664062 3.953125 -7.320312 3.953125 -10.625 C 3.953125 -13.832031 5.109375 -16.414062 7.421875 -18.375 C 9.742188 -20.34375 13.445312 -21.328125 18.53125 -21.328125 L 30.515625 -21.328125 L 30.515625 -23.625 C 30.515625 -26.875 29.601562 -29.347656 27.78125 -31.046875 C 25.96875 -32.742188 23.3125 -33.59375 19.8125 -33.59375 C 17.414062 -33.59375 15.117188 -33.195312 12.921875 -32.40625 C 10.722656 -31.625 8.832031 -30.539062 7.25 -29.15625 L 4.953125 -32.953125 C 6.867188 -34.578125 9.164062 -35.832031 11.84375 -36.71875 C 14.519531 -37.601562 17.34375 -38.046875 20.3125 -38.046875 Z M 18.53125 -3.65625 C 21.394531 -3.65625 23.851562 -4.3125 25.90625 -5.625 C 27.96875 -6.945312 29.503906 -8.851562 30.515625 -11.34375 L 30.515625 -17.515625 L 18.671875 -17.515625 C 12.203125 -17.515625 8.96875 -15.265625 8.96875 -10.765625 C 8.96875 -8.566406 9.804688 -6.832031 11.484375 -5.5625 C 13.160156 -4.289062 15.507812 -3.65625 18.53125 -3.65625 Z M 18.53125 -3.65625 "/></g></g></g><g fill="#ffffff" fill-opacity="1"><g transform="translate(703.111353, 362.150472)"><g><path d="M 38.84375 -37.765625 L 19.953125 4.515625 C 18.421875 8.066406 16.648438 10.582031 14.640625 12.0625 C 12.628906 13.539062 10.210938 14.28125 7.390625 14.28125 C 5.578125 14.28125 3.878906 13.992188 2.296875 13.421875 C 0.710938 12.847656 -0.648438 11.988281 -1.796875 10.84375 L 0.578125 7.03125 C 2.492188 8.945312 4.789062 9.90625 7.46875 9.90625 C 9.1875 9.90625 10.65625 9.425781 11.875 8.46875 C 13.101562 7.507812 14.242188 5.882812 15.296875 3.59375 L 16.9375 -0.078125 L 0.078125 -37.765625 L 5.390625 -37.765625 L 19.59375 -5.671875 L 33.8125 -37.765625 Z M 38.84375 -37.765625 "/></g></g></g><g fill="#ffffff" fill-opacity="1"><g transform="translate(742.026894, 362.150472)"><g/></g></g><g fill="#ffffff" fill-opacity="1"><g transform="translate(760.838447, 362.150472)"><g><path d="M 62.53125 -37.765625 L 48.25 0 L 43.4375 0 L 31.515625 -30.9375 L 19.59375 0 L 14.796875 0 L 0.578125 -37.765625 L 5.453125 -37.765625 L 17.296875 -5.671875 L 29.4375 -37.765625 L 33.8125 -37.765625 L 45.875 -5.671875 L 57.875 -37.765625 Z M 62.53125 -37.765625 "/></g></g></g><g fill="#ffffff" fill-opacity="1"><g transform="translate(823.950569, 362.150472)"><g><path d="M 7.109375 -37.765625 L 12.203125 -37.765625 L 12.203125 0 L 7.109375 0 Z M 9.6875 -46.015625 C 8.632812 -46.015625 7.75 -46.375 7.03125 -47.09375 C 6.320312 -47.8125 5.96875 -48.675781 5.96875 -49.6875 C 5.96875 -50.644531 6.320312 -51.476562 7.03125 -52.1875 C 7.75 -52.90625 8.632812 -53.265625 9.6875 -53.265625 C 10.75 -53.265625 11.632812 -52.914062 12.34375 -52.21875 C 13.0625 -51.53125 13.421875 -50.707031 13.421875 -49.75 C 13.421875 -48.695312 13.0625 -47.8125 12.34375 -47.09375 C 11.632812 -46.375 10.75 -46.015625 9.6875 -46.015625 Z M 9.6875 -46.015625 "/></g></g></g><g fill="#ffffff" fill-opacity="1"><g transform="translate(843.264757, 362.150472)"><g><path d="M 27 -2.296875 C 26.039062 -1.429688 24.851562 -0.769531 23.4375 -0.3125 C 22.03125 0.132812 20.5625 0.359375 19.03125 0.359375 C 15.488281 0.359375 12.757812 -0.597656 10.84375 -2.515625 C 8.925781 -4.429688 7.96875 -7.132812 7.96875 -10.625 L 7.96875 -33.453125 L 1.21875 -33.453125 L 1.21875 -37.765625 L 7.96875 -37.765625 L 7.96875 -46.015625 L 13.0625 -46.015625 L 13.0625 -37.765625 L 24.546875 -37.765625 L 24.546875 -33.453125 L 13.0625 -33.453125 L 13.0625 -10.90625 C 13.0625 -8.65625 13.625 -6.941406 14.75 -5.765625 C 15.875 -4.597656 17.488281 -4.015625 19.59375 -4.015625 C 20.65625 -4.015625 21.675781 -4.179688 22.65625 -4.515625 C 23.632812 -4.859375 24.484375 -5.335938 25.203125 -5.953125 Z M 27 -2.296875 "/></g></g></g><g fill="#ffffff" fill-opacity="1"><g transform="translate(872.415491, 362.150472)"><g><path d="M 26.34375 -38.046875 C 31.082031 -38.046875 34.851562 -36.671875 37.65625 -33.921875 C 40.457031 -31.171875 41.859375 -27.160156 41.859375 -21.890625 L 41.859375 0 L 36.765625 0 L 36.765625 -21.390625 C 36.765625 -25.316406 35.78125 -28.304688 33.8125 -30.359375 C 31.851562 -32.421875 29.054688 -33.453125 25.421875 -33.453125 C 21.347656 -33.453125 18.125 -32.242188 15.75 -29.828125 C 13.382812 -27.410156 12.203125 -24.070312 12.203125 -19.8125 L 12.203125 0 L 7.109375 0 L 7.109375 -53.265625 L 12.203125 -53.265625 L 12.203125 -31.15625 C 13.585938 -33.363281 15.5 -35.0625 17.9375 -36.25 C 20.382812 -37.445312 23.1875 -38.046875 26.34375 -38.046875 Z M 26.34375 -38.046875 "/></g></g></g><g fill="#ffffff" fill-opacity="1"><g transform="translate(921.024031, 362.150472)"><g/></g></g><g fill="#ffffff" fill-opacity="1"><g transform="translate(939.835607, 362.150472)"><g><path d="M 22.546875 0.359375 C 18.910156 0.359375 15.628906 -0.460938 12.703125 -2.109375 C 9.785156 -3.765625 7.488281 -6.050781 5.8125 -8.96875 C 4.132812 -11.894531 3.296875 -15.195312 3.296875 -18.875 C 3.296875 -22.5625 4.132812 -25.863281 5.8125 -28.78125 C 7.488281 -31.707031 9.785156 -33.984375 12.703125 -35.609375 C 15.628906 -37.234375 18.910156 -38.046875 22.546875 -38.046875 C 26.179688 -38.046875 29.457031 -37.234375 32.375 -35.609375 C 35.300781 -33.984375 37.585938 -31.707031 39.234375 -28.78125 C 40.890625 -25.863281 41.71875 -22.5625 41.71875 -18.875 C 41.71875 -15.195312 40.890625 -11.894531 39.234375 -8.96875 C 37.585938 -6.050781 35.300781 -3.765625 32.375 -2.109375 C 29.457031 -0.460938 26.179688 0.359375 22.546875 0.359375 Z M 22.546875 -4.171875 C 25.222656 -4.171875 27.625 -4.78125 29.75 -6 C 31.882812 -7.21875 33.550781 -8.953125 34.75 -11.203125 C 35.945312 -13.453125 36.546875 -16.007812 36.546875 -18.875 C 36.546875 -21.75 35.945312 -24.3125 34.75 -26.5625 C 33.550781 -28.8125 31.882812 -30.546875 29.75 -31.765625 C 27.625 -32.984375 25.222656 -33.59375 22.546875 -33.59375 C 19.867188 -33.59375 17.460938 -32.984375 15.328125 -31.765625 C 13.203125 -30.546875 11.523438 -28.8125 10.296875 -26.5625 C 9.078125 -24.3125 8.46875 -21.75 8.46875 -18.875 C 8.46875 -16.007812 9.078125 -13.453125 10.296875 -11.203125 C 11.523438 -8.953125 13.203125 -7.21875 15.328125 -6 C 17.460938 -4.78125 19.867188 -4.171875 22.546875 -4.171875 Z M 22.546875 -4.171875 "/></g></g></g><g fill="#ffffff" fill-opacity="1"><g transform="translate(984.854144, 362.150472)"><g><path d="M 26.34375 -38.046875 C 31.082031 -38.046875 34.851562 -36.671875 37.65625 -33.921875 C 40.457031 -31.171875 41.859375 -27.160156 41.859375 -21.890625 L 41.859375 0 L 36.765625 0 L 36.765625 -21.390625 C 36.765625 -25.316406 35.78125 -28.304688 33.8125 -30.359375 C 31.851562 -32.421875 29.054688 -33.453125 25.421875 -33.453125 C 21.347656 -33.453125 18.125 -32.242188 15.75 -29.828125 C 13.382812 -27.410156 12.203125 -24.070312 12.203125 -19.8125 L 12.203125 0 L 7.109375 0 L 7.109375 -37.765625 L 11.984375 -37.765625 L 11.984375 -30.796875 C 13.378906 -33.097656 15.304688 -34.878906 17.765625 -36.140625 C 20.234375 -37.410156 23.09375 -38.046875 26.34375 -38.046875 Z M 26.34375 -38.046875 "/></g></g></g><g fill="#ffffff" fill-opacity="1"><g transform="translate(1033.462638, 362.150472)"><g><path d="M 39.984375 -17.296875 L 8.40625 -17.296875 C 8.6875 -13.378906 10.191406 -10.210938 12.921875 -7.796875 C 15.648438 -5.378906 19.097656 -4.171875 23.265625 -4.171875 C 25.609375 -4.171875 27.757812 -4.585938 29.71875 -5.421875 C 31.6875 -6.253906 33.390625 -7.488281 34.828125 -9.125 L 37.6875 -5.8125 C 36.019531 -3.800781 33.925781 -2.269531 31.40625 -1.21875 C 28.894531 -0.164062 26.132812 0.359375 23.125 0.359375 C 19.238281 0.359375 15.800781 -0.460938 12.8125 -2.109375 C 9.820312 -3.765625 7.488281 -6.050781 5.8125 -8.96875 C 4.132812 -11.894531 3.296875 -15.195312 3.296875 -18.875 C 3.296875 -22.5625 4.097656 -25.863281 5.703125 -28.78125 C 7.304688 -31.707031 9.507812 -33.984375 12.3125 -35.609375 C 15.113281 -37.234375 18.257812 -38.046875 21.75 -38.046875 C 25.25 -38.046875 28.382812 -37.234375 31.15625 -35.609375 C 33.9375 -33.984375 36.113281 -31.722656 37.6875 -28.828125 C 39.269531 -25.929688 40.0625 -22.613281 40.0625 -18.875 Z M 21.75 -33.671875 C 18.113281 -33.671875 15.0625 -32.507812 12.59375 -30.1875 C 10.132812 -27.863281 8.738281 -24.835938 8.40625 -21.109375 L 35.1875 -21.109375 C 34.84375 -24.835938 33.4375 -27.863281 30.96875 -30.1875 C 28.507812 -32.507812 25.4375 -33.671875 21.75 -33.671875 Z M 21.75 -33.671875 "/></g></g></g><g fill="#ffffff" fill-opacity="1"><g transform="translate(1076.829812, 362.150472)"><g/></g></g><g fill="#ffffff" fill-opacity="1"><g transform="translate(1095.641388, 362.150472)"><g><path d="M 27 -2.296875 C 26.039062 -1.429688 24.851562 -0.769531 23.4375 -0.3125 C 22.03125 0.132812 20.5625 0.359375 19.03125 0.359375 C 15.488281 0.359375 12.757812 -0.597656 10.84375 -2.515625 C 8.925781 -4.429688 7.96875 -7.132812 7.96875 -10.625 L 7.96875 -33.453125 L 1.21875 -33.453125 L 1.21875 -37.765625 L 7.96875 -37.765625 L 7.96875 -46.015625 L 13.0625 -46.015625 L 13.0625 -37.765625 L 24.546875 -37.765625 L 24.546875 -33.453125 L 13.0625 -33.453125 L 13.0625 -10.90625 C 13.0625 -8.65625 13.625 -6.941406 14.75 -5.765625 C 15.875 -4.597656 17.488281 -4.015625 19.59375 -4.015625 C 20.65625 -4.015625 21.675781 -4.179688 22.65625 -4.515625 C 23.632812 -4.859375 24.484375 -5.335938 25.203125 -5.953125 Z M 27 -2.296875 "/></g></g></g><g fill="#ffffff" fill-opacity="1"><g transform="translate(1124.792123, 362.150472)"><g><path d="M 22.546875 0.359375 C 18.910156 0.359375 15.628906 -0.460938 12.703125 -2.109375 C 9.785156 -3.765625 7.488281 -6.050781 5.8125 -8.96875 C 4.132812 -11.894531 3.296875 -15.195312 3.296875 -18.875 C 3.296875 -22.5625 4.132812 -25.863281 5.8125 -28.78125 C 7.488281 -31.707031 9.785156 -33.984375 12.703125 -35.609375 C 15.628906 -37.234375 18.910156 -38.046875 22.546875 -38.046875 C 26.179688 -38.046875 29.457031 -37.234375 32.375 -35.609375 C 35.300781 -33.984375 37.585938 -31.707031 39.234375 -28.78125 C 40.890625 -25.863281 41.71875 -22.5625 41.71875 -18.875 C 41.71875 -15.195312 40.890625 -11.894531 39.234375 -8.96875 C 37.585938 -6.050781 35.300781 -3.765625 32.375 -2.109375 C 29.457031 -0.460938 26.179688 0.359375 22.546875 0.359375 Z M 22.546875 -4.171875 C 25.222656 -4.171875 27.625 -4.78125 29.75 -6 C 31.882812 -7.21875 33.550781 -8.953125 34.75 -11.203125 C 35.945312 -13.453125 36.546875 -16.007812 36.546875 -18.875 C 36.546875 -21.75 35.945312 -24.3125 34.75 -26.5625 C 33.550781 -28.8125 31.882812 -30.546875 29.75 -31.765625 C 27.625 -32.984375 25.222656 -33.59375 22.546875 -33.59375 C 19.867188 -33.59375 17.460938 -32.984375 15.328125 -31.765625 C 13.203125 -30.546875 11.523438 -28.8125 10.296875 -26.5625 C 9.078125 -24.3125 8.46875 -21.75 8.46875 -18.875 C 8.46875 -16.007812 9.078125 -13.453125 10.296875 -11.203125 C 11.523438 -8.953125 13.203125 -7.21875 15.328125 -6 C 17.460938 -4.78125 19.867188 -4.171875 22.546875 -4.171875 Z M 22.546875 -4.171875 "/></g></g></g><g fill="#ffffff" fill-opacity="1"><g transform="translate(1169.810705, 362.150472)"><g><path d="M 41.140625 -37.765625 L 41.140625 0 L 36.25 0 L 36.25 -6.890625 C 34.914062 -4.597656 33.078125 -2.816406 30.734375 -1.546875 C 28.390625 -0.273438 25.707031 0.359375 22.6875 0.359375 C 17.757812 0.359375 13.867188 -1.015625 11.015625 -3.765625 C 8.171875 -6.515625 6.75 -10.546875 6.75 -15.859375 L 6.75 -37.765625 L 11.84375 -37.765625 L 11.84375 -16.375 C 11.84375 -12.394531 12.820312 -9.375 14.78125 -7.3125 C 16.75 -5.257812 19.550781 -4.234375 23.1875 -4.234375 C 27.164062 -4.234375 30.300781 -5.441406 32.59375 -7.859375 C 34.894531 -10.273438 36.046875 -13.640625 36.046875 -17.953125 L 36.046875 -37.765625 Z M 41.140625 -37.765625 "/></g></g></g><g fill="#ffffff" fill-opacity="1"><g transform="translate(1218.131966, 362.150472)"><g><path d="M 22.765625 0.359375 C 19.023438 0.359375 15.679688 -0.453125 12.734375 -2.078125 C 9.796875 -3.703125 7.488281 -5.988281 5.8125 -8.9375 C 4.132812 -11.882812 3.296875 -15.195312 3.296875 -18.875 C 3.296875 -22.5625 4.132812 -25.863281 5.8125 -28.78125 C 7.488281 -31.707031 9.796875 -33.984375 12.734375 -35.609375 C 15.679688 -37.234375 19.023438 -38.046875 22.765625 -38.046875 C 26.015625 -38.046875 28.921875 -37.410156 31.484375 -36.140625 C 34.046875 -34.878906 36.066406 -33.023438 37.546875 -30.578125 L 33.75 -28 C 32.5 -29.863281 30.914062 -31.257812 29 -32.1875 C 27.09375 -33.125 25.015625 -33.59375 22.765625 -33.59375 C 20.035156 -33.59375 17.582031 -32.984375 15.40625 -31.765625 C 13.226562 -30.546875 11.523438 -28.8125 10.296875 -26.5625 C 9.078125 -24.3125 8.46875 -21.75 8.46875 -18.875 C 8.46875 -15.957031 9.078125 -13.382812 10.296875 -11.15625 C 11.523438 -8.9375 13.226562 -7.21875 15.40625 -6 C 17.582031 -4.78125 20.035156 -4.171875 22.765625 -4.171875 C 25.015625 -4.171875 27.09375 -4.625 29 -5.53125 C 30.914062 -6.4375 32.5 -7.820312 33.75 -9.6875 L 37.546875 -7.109375 C 36.066406 -4.671875 34.03125 -2.816406 31.4375 -1.546875 C 28.851562 -0.273438 25.960938 0.359375 22.765625 0.359375 Z M 22.765625 0.359375 "/></g></g></g><g fill="#ffffff" fill-opacity="1"><g transform="translate(1258.555321, 362.150472)"><g><path d="M 26.34375 -38.046875 C 31.082031 -38.046875 34.851562 -36.671875 37.65625 -33.921875 C 40.457031 -31.171875 41.859375 -27.160156 41.859375 -21.890625 L 41.859375 0 L 36.765625 0 L 36.765625 -21.390625 C 36.765625 -25.316406 35.78125 -28.304688 33.8125 -30.359375 C 31.851562 -32.421875 29.054688 -33.453125 25.421875 -33.453125 C 21.347656 -33.453125 18.125 -32.242188 15.75 -29.828125 C 13.382812 -27.410156 12.203125 -24.070312 12.203125 -19.8125 L 12.203125 0 L 7.109375 0 L 7.109375 -53.265625 L 12.203125 -53.265625 L 12.203125 -31.15625 C 13.585938 -33.363281 15.5 -35.0625 17.9375 -36.25 C 20.382812 -37.445312 23.1875 -38.046875 26.34375 -38.046875 Z M 26.34375 -38.046875 "/></g></g></g><g fill="#ffffff" fill-opacity="1"><g transform="translate(1307.163906, 362.150472)"><g/></g></g><g fill="#ffffff" fill-opacity="1"><g transform="translate(1325.975391, 362.150472)"><g><path d="M 17.234375 0.359375 C 14.171875 0.359375 11.238281 -0.0820312 8.4375 -0.96875 C 5.632812 -1.851562 3.441406 -2.96875 1.859375 -4.3125 L 4.171875 -8.328125 C 5.742188 -7.085938 7.726562 -6.070312 10.125 -5.28125 C 12.519531 -4.488281 15.007812 -4.09375 17.59375 -4.09375 C 21.039062 -4.09375 23.585938 -4.628906 25.234375 -5.703125 C 26.890625 -6.785156 27.71875 -8.304688 27.71875 -10.265625 C 27.71875 -11.648438 27.257812 -12.738281 26.34375 -13.53125 C 25.4375 -14.320312 24.289062 -14.921875 22.90625 -15.328125 C 21.519531 -15.734375 19.675781 -16.128906 17.375 -16.515625 C 14.3125 -17.085938 11.847656 -17.671875 9.984375 -18.265625 C 8.117188 -18.867188 6.523438 -19.890625 5.203125 -21.328125 C 3.890625 -22.765625 3.234375 -24.75 3.234375 -27.28125 C 3.234375 -30.4375 4.546875 -33.019531 7.171875 -35.03125 C 9.804688 -37.039062 13.472656 -38.046875 18.171875 -38.046875 C 20.609375 -38.046875 23.046875 -37.722656 25.484375 -37.078125 C 27.929688 -36.429688 29.941406 -35.582031 31.515625 -34.53125 L 29.296875 -30.4375 C 26.179688 -32.59375 22.472656 -33.671875 18.171875 -33.671875 C 14.910156 -33.671875 12.453125 -33.09375 10.796875 -31.9375 C 9.148438 -30.789062 8.328125 -29.285156 8.328125 -27.421875 C 8.328125 -25.984375 8.789062 -24.832031 9.71875 -23.96875 C 10.65625 -23.113281 11.816406 -22.484375 13.203125 -22.078125 C 14.597656 -21.671875 16.515625 -21.253906 18.953125 -20.828125 C 21.972656 -20.242188 24.390625 -19.664062 26.203125 -19.09375 C 28.023438 -18.519531 29.582031 -17.539062 30.875 -16.15625 C 32.164062 -14.769531 32.8125 -12.851562 32.8125 -10.40625 C 32.8125 -7.101562 31.429688 -4.484375 28.671875 -2.546875 C 25.921875 -0.609375 22.109375 0.359375 17.234375 0.359375 Z M 17.234375 0.359375 "/></g></g></g><g fill="#ffffff" fill-opacity="1"><g transform="translate(1361.085574, 362.150472)"><g><path d="M 62.53125 -37.765625 L 48.25 0 L 43.4375 0 L 31.515625 -30.9375 L 19.59375 0 L 14.796875 0 L 0.578125 -37.765625 L 5.453125 -37.765625 L 17.296875 -5.671875 L 29.4375 -37.765625 L 33.8125 -37.765625 L 45.875 -5.671875 L 57.875 -37.765625 Z M 62.53125 -37.765625 "/></g></g></g><g fill="#ffffff" fill-opacity="1"><g transform="translate(1424.197695, 362.150472)"><g><path d="M 7.109375 -37.765625 L 12.203125 -37.765625 L 12.203125 0 L 7.109375 0 Z M 9.6875 -46.015625 C 8.632812 -46.015625 7.75 -46.375 7.03125 -47.09375 C 6.320312 -47.8125 5.96875 -48.675781 5.96875 -49.6875 C 5.96875 -50.644531 6.320312 -51.476562 7.03125 -52.1875 C 7.75 -52.90625 8.632812 -53.265625 9.6875 -53.265625 C 10.75 -53.265625 11.632812 -52.914062 12.34375 -52.21875 C 13.0625 -51.53125 13.421875 -50.707031 13.421875 -49.75 C 13.421875 -48.695312 13.0625 -47.8125 12.34375 -47.09375 C 11.632812 -46.375 10.75 -46.015625 9.6875 -46.015625 Z M 9.6875 -46.015625 "/></g></g></g><g fill="#ffffff" fill-opacity="1"><g transform="translate(1443.511883, 362.150472)"><g><path d="M 27 -2.296875 C 26.039062 -1.429688 24.851562 -0.769531 23.4375 -0.3125 C 22.03125 0.132812 20.5625 0.359375 19.03125 0.359375 C 15.488281 0.359375 12.757812 -0.597656 10.84375 -2.515625 C 8.925781 -4.429688 7.96875 -7.132812 7.96875 -10.625 L 7.96875 -33.453125 L 1.21875 -33.453125 L 1.21875 -37.765625 L 7.96875 -37.765625 L 7.96875 -46.015625 L 13.0625 -46.015625 L 13.0625 -37.765625 L 24.546875 -37.765625 L 24.546875 -33.453125 L 13.0625 -33.453125 L 13.0625 -10.90625 C 13.0625 -8.65625 13.625 -6.941406 14.75 -5.765625 C 15.875 -4.597656 17.488281 -4.015625 19.59375 -4.015625 C 20.65625 -4.015625 21.675781 -4.179688 22.65625 -4.515625 C 23.632812 -4.859375 24.484375 -5.335938 25.203125 -5.953125 Z M 27 -2.296875 "/></g></g></g><g fill="#ffffff" fill-opacity="1"><g transform="translate(1472.662572, 362.150472)"><g><path d="M 22.765625 0.359375 C 19.023438 0.359375 15.679688 -0.453125 12.734375 -2.078125 C 9.796875 -3.703125 7.488281 -5.988281 5.8125 -8.9375 C 4.132812 -11.882812 3.296875 -15.195312 3.296875 -18.875 C 3.296875 -22.5625 4.132812 -25.863281 5.8125 -28.78125 C 7.488281 -31.707031 9.796875 -33.984375 12.734375 -35.609375 C 15.679688 -37.234375 19.023438 -38.046875 22.765625 -38.046875 C 26.015625 -38.046875 28.921875 -37.410156 31.484375 -36.140625 C 34.046875 -34.878906 36.066406 -33.023438 37.546875 -30.578125 L 33.75 -28 C 32.5 -29.863281 30.914062 -31.257812 29 -32.1875 C 27.09375 -33.125 25.015625 -33.59375 22.765625 -33.59375 C 20.035156 -33.59375 17.582031 -32.984375 15.40625 -31.765625 C 13.226562 -30.546875 11.523438 -28.8125 10.296875 -26.5625 C 9.078125 -24.3125 8.46875 -21.75 8.46875 -18.875 C 8.46875 -15.957031 9.078125 -13.382812 10.296875 -11.15625 C 11.523438 -8.9375 13.226562 -7.21875 15.40625 -6 C 17.582031 -4.78125 20.035156 -4.171875 22.765625 -4.171875 C 25.015625 -4.171875 27.09375 -4.625 29 -5.53125 C 30.914062 -6.4375 32.5 -7.820312 33.75 -9.6875 L 37.546875 -7.109375 C 36.066406 -4.671875 34.03125 -2.816406 31.4375 -1.546875 C 28.851562 -0.273438 25.960938 0.359375 22.765625 0.359375 Z M 22.765625 0.359375 "/></g></g></g><g fill="#ffffff" fill-opacity="1"><g transform="translate(1513.085927, 362.150472)"><g><path d="M 26.34375 -38.046875 C 31.082031 -38.046875 34.851562 -36.671875 37.65625 -33.921875 C 40.457031 -31.171875 41.859375 -27.160156 41.859375 -21.890625 L 41.859375 0 L 36.765625 0 L 36.765625 -21.390625 C 36.765625 -25.316406 35.78125 -28.304688 33.8125 -30.359375 C 31.851562 -32.421875 29.054688 -33.453125 25.421875 -33.453125 C 21.347656 -33.453125 18.125 -32.242188 15.75 -29.828125 C 13.382812 -27.410156 12.203125 -24.070312 12.203125 -19.8125 L 12.203125 0 L 7.109375 0 L 7.109375 -53.265625 L 12.203125 -53.265625 L 12.203125 -31.15625 C 13.585938 -33.363281 15.5 -35.0625 17.9375 -36.25 C 20.382812 -37.445312 23.1875 -38.046875 26.34375 -38.046875 Z M 26.34375 -38.046875 "/></g></g></g><g fill="#ffffff" fill-opacity="1"><g transform="translate(1561.694513, 362.150472)"><g><path d="M 7.109375 -37.765625 L 12.203125 -37.765625 L 12.203125 0 L 7.109375 0 Z M 9.6875 -46.015625 C 8.632812 -46.015625 7.75 -46.375 7.03125 -47.09375 C 6.320312 -47.8125 5.96875 -48.675781 5.96875 -49.6875 C 5.96875 -50.644531 6.320312 -51.476562 7.03125 -52.1875 C 7.75 -52.90625 8.632812 -53.265625 9.6875 -53.265625 C 10.75 -53.265625 11.632812 -52.914062 12.34375 -52.21875 C 13.0625 -51.53125 13.421875 -50.707031 13.421875 -49.75 C 13.421875 -48.695312 13.0625 -47.8125 12.34375 -47.09375 C 11.632812 -46.375 10.75 -46.015625 9.6875 -46.015625 Z M 9.6875 -46.015625 "/></g></g></g><g fill="#ffffff" fill-opacity="1"><g transform="translate(1581.008609, 362.150472)"><g><path d="M 26.34375 -38.046875 C 31.082031 -38.046875 34.851562 -36.671875 37.65625 -33.921875 C 40.457031 -31.171875 41.859375 -27.160156 41.859375 -21.890625 L 41.859375 0 L 36.765625 0 L 36.765625 -21.390625 C 36.765625 -25.316406 35.78125 -28.304688 33.8125 -30.359375 C 31.851562 -32.421875 29.054688 -33.453125 25.421875 -33.453125 C 21.347656 -33.453125 18.125 -32.242188 15.75 -29.828125 C 13.382812 -27.410156 12.203125 -24.070312 12.203125 -19.8125 L 12.203125 0 L 7.109375 0 L 7.109375 -37.765625 L 11.984375 -37.765625 L 11.984375 -30.796875 C 13.378906 -33.097656 15.304688 -34.878906 17.765625 -36.140625 C 20.234375 -37.410156 23.09375 -38.046875 26.34375 -38.046875 Z M 26.34375 -38.046875 "/></g></g></g><g fill="#ffffff" fill-opacity="1"><g transform="translate(1629.617195, 362.150472)"><g><path d="M 42.078125 -37.765625 L 42.078125 -4.59375 C 42.078125 1.820312 40.507812 6.570312 37.375 9.65625 C 34.238281 12.738281 29.507812 14.28125 23.1875 14.28125 C 19.695312 14.28125 16.382812 13.765625 13.25 12.734375 C 10.113281 11.710938 7.5625 10.289062 5.59375 8.46875 L 8.1875 4.59375 C 10 6.21875 12.207031 7.484375 14.8125 8.390625 C 17.425781 9.304688 20.171875 9.765625 23.046875 9.765625 C 27.828125 9.765625 31.34375 8.648438 33.59375 6.421875 C 35.84375 4.203125 36.96875 0.742188 36.96875 -3.953125 L 36.96875 -8.765625 C 35.394531 -6.367188 33.328125 -4.546875 30.765625 -3.296875 C 28.203125 -2.054688 25.363281 -1.4375 22.25 -1.4375 C 18.707031 -1.4375 15.488281 -2.210938 12.59375 -3.765625 C 9.695312 -5.328125 7.421875 -7.503906 5.765625 -10.296875 C 4.117188 -13.097656 3.296875 -16.269531 3.296875 -19.8125 C 3.296875 -23.351562 4.117188 -26.507812 5.765625 -29.28125 C 7.421875 -32.0625 9.6875 -34.21875 12.5625 -35.75 C 15.4375 -37.28125 18.664062 -38.046875 22.25 -38.046875 C 25.457031 -38.046875 28.351562 -37.398438 30.9375 -36.109375 C 33.53125 -34.816406 35.613281 -32.953125 37.1875 -30.515625 L 37.1875 -37.765625 Z M 22.765625 -5.953125 C 25.492188 -5.953125 27.957031 -6.539062 30.15625 -7.71875 C 32.351562 -8.894531 34.0625 -10.535156 35.28125 -12.640625 C 36.507812 -14.742188 37.125 -17.132812 37.125 -19.8125 C 37.125 -22.5 36.507812 -24.878906 35.28125 -26.953125 C 34.0625 -29.035156 32.363281 -30.660156 30.1875 -31.828125 C 28.007812 -33.003906 25.535156 -33.59375 22.765625 -33.59375 C 20.035156 -33.59375 17.582031 -33.019531 15.40625 -31.875 C 13.226562 -30.726562 11.523438 -29.101562 10.296875 -27 C 9.078125 -24.894531 8.46875 -22.5 8.46875 -19.8125 C 8.46875 -17.132812 9.078125 -14.742188 10.296875 -12.640625 C 11.523438 -10.535156 13.226562 -8.894531 15.40625 -7.71875 C 17.582031 -6.539062 20.035156 -5.953125 22.765625 -5.953125 Z M 22.765625 -5.953125 "/></g></g></g></svg>